# xmcd
#
# Track frame offsets:
#	150
#	15399
#	35606
#	53832
#	70082
#	100076
#	117281
#	136470
#	152638
#	174172
#	187070
#	209881
#	229503
#	239955
#
# Disc length: 3459 seconds
#
# Revision: 0
# Processed by: cddbd v1.5.1PL0 Copyright (c) Steve Scherf et al.
# Submitted via: dBpowerAMP V4.0
#
DISCID=c30d810e
DTITLE=Early Times - The Sacramento Years '92-'97
DYEAR=2003
DGENRE=Blues
TTITLE0=Candy Girl
TTITLE1=Doin' the Nasty
TTITLE2=Methadone Clinic
TTITLE3=Just a Gigalo
TTITLE4=916
TTITLE5=Smells Like Smoke
TTITLE6=Free Box
TTITLE7=Turn You On
TTITLE8=If You Don't Know
TTITLE9=Hobo Deluxe
TTITLE10=Orphan
TTITLE11=Papa Died
TTITLE12=Punk
TTITLE13=Over the Years
EXTD=
EXTT0=
EXTT1=
EXTT2=
EXTT3=
EXTT4=
EXTT5=
EXTT6=
EXTT7=
EXTT8=
EXTT9=
EXTT10=
EXTT11=
EXTT12=
EXTT13=
PLAYORDER=
